<svg width="20" height="20" viewBox="0 0 20 20" fill="none" xmlns="http://www.w3.org/2000/svg">
<path d="M0.558674 0.558675C-0.186225 1.30357 -0.186225 2.5113 0.558675 3.2562L7.30248 10L0.558695 16.7438C-0.186204 17.4887 -0.186205 18.6964 0.558695 19.4413C1.30359 20.1862 2.51132 20.1862 3.25621 19.4413L10 12.6975L16.7438 19.4413C17.4887 20.1862 18.6964 20.1862 19.4413 19.4413C20.1862 18.6964 20.1862 17.4887 19.4413 16.7438L12.6975 10L19.4413 3.2562C20.1862 2.5113 20.1862 1.30358 19.4413 0.558679C18.6964 -0.18622 17.4887 -0.18622 16.7438 0.55868L10 7.30249L3.25619 0.558675C2.51129 -0.186225 1.30357 -0.186225 0.558674 0.558675Z" fill="#231F20"/>
</svg>
