<svg width="24" height="25" viewBox="0 0 24 25" fill="none" xmlns="http://www.w3.org/2000/svg">
<path fill-rule="evenodd" clip-rule="evenodd" d="M18.9902 20.8022H16.0002V13.8022C16.0002 13.2492 15.5522 12.8022 15.0002 12.8022H9.00024C8.44724 12.8022 8.00024 13.2492 8.00024 13.8022V20.8022H5.00024L5.00624 12.3852L11.9982 5.2342L19.0002 12.4262L18.9902 20.8022ZM10.0002 20.8022H14.0002V14.8022H10.0002V20.8022ZM20.4242 10.9872L12.7152 3.1032C12.3382 2.7182 11.6622 2.7182 11.2852 3.1032L3.57524 10.9882C3.21024 11.3632 3.00024 11.8872 3.00024 12.4262V20.8022C3.00024 21.9052 3.84724 22.8022 4.88824 22.8022H9.00024H15.0002H19.1112C20.1522 22.8022 21.0002 21.9052 21.0002 20.8022V12.4262C21.0002 11.8872 20.7902 11.3632 20.4242 10.9872Z" fill="#231F20"/>
<mask id="mask0" mask-type="alpha" maskUnits="userSpaceOnUse" x="3" y="2" width="19" height="21">
<path fill-rule="evenodd" clip-rule="evenodd" d="M18.9902 20.8022H16.0002V13.8022C16.0002 13.2492 15.5522 12.8022 15.0002 12.8022H9.00024C8.44724 12.8022 8.00024 13.2492 8.00024 13.8022V20.8022H5.00024L5.00624 12.3852L11.9982 5.2342L19.0002 12.4262L18.9902 20.8022ZM10.0002 20.8022H14.0002V14.8022H10.0002V20.8022ZM20.4242 10.9872L12.7152 3.1032C12.3382 2.7182 11.6622 2.7182 11.2852 3.1032L3.57524 10.9882C3.21024 11.3632 3.00024 11.8872 3.00024 12.4262V20.8022C3.00024 21.9052 3.84724 22.8022 4.88824 22.8022H9.00024H15.0002H19.1112C20.1522 22.8022 21.0002 21.9052 21.0002 20.8022V12.4262C21.0002 11.8872 20.7902 11.3632 20.4242 10.9872Z" fill="white"/>
</mask>

</svg>
