<svg width="18" height="8" viewBox="0 0 18 8" fill="none" xmlns="http://www.w3.org/2000/svg">
<path d="M16.6354 1.1668C15.8635 0.403413 14.7644 0 13.4621 0C12.2486 0 11.229 0.378588 10.3491 1.15749C9.80272 1.64158 9.358 2.23429 8.95141 2.84562C7.97305 1.38402 6.72785 0 4.33594 0C3.04628 0 1.94403 0.428239 1.14672 1.23817C0.406594 1.98914 0 3.0225 0 4.14895C0 5.22886 0.463771 6.22498 1.30237 6.95423C2.06791 7.61831 3.08757 8 4.09452 8C5.45089 8 6.57856 7.62141 7.54739 6.84251C8.09058 6.40497 8.53846 5.87432 8.93553 5.32506C9.86625 6.67494 11.1241 8 13.4621 8C14.7104 8 15.8444 7.56556 16.6513 6.77735C17.3819 6.06362 17.8012 5.10473 17.8044 4.15206C17.8139 2.98216 17.4009 1.92087 16.6354 1.1668ZM4.0977 6.66253C2.77945 6.66253 1.36908 5.65089 1.36908 4.14585C1.36908 2.74632 2.28709 1.33437 4.33594 1.33437C6.28949 1.33437 7.18209 2.58495 8.13822 4.08689C7.14715 5.57021 6.1402 6.66253 4.0977 6.66253ZM16.4321 4.14895C16.4321 5.19473 15.5109 6.66563 13.4621 6.66563C11.6546 6.66563 10.7716 5.66331 9.75507 4.0993C10.7176 2.60667 11.5784 1.34057 13.4621 1.34057C14.4055 1.34057 15.1456 1.60124 15.6634 2.11327C16.1684 2.61288 16.4416 3.33282 16.4321 4.14585V4.14895Z" fill="#333333"/>
</svg>
