<svg width="27" height="24" viewBox="0 0 27 24" fill="none" xmlns="http://www.w3.org/2000/svg">
<path fill-rule="evenodd" clip-rule="evenodd" d="M8.88877 5C8.88877 5.55 8.38877 6 7.77766 6H6.66655V18H7.77766C8.38877 18 8.88877 18.45 8.88877 19C8.88877 19.55 8.38877 20 7.77766 20H5.55545C4.94434 20 4.44434 19.55 4.44434 19V5C4.44434 4.45 4.94434 4 5.55545 4H7.77766C8.38877 4 8.88877 4.45 8.88877 5ZM20.0042 7.4248L23.1309 11.4248C23.4086 11.7788 23.3997 12.2538 23.1109 12.5998L19.7775 16.5998C19.5598 16.8618 19.2253 16.9998 18.8875 16.9998C18.6564 16.9998 18.422 16.9348 18.222 16.7998C17.7309 16.4688 17.632 15.8418 17.9998 15.4008L20.0009 12.9998H19.9998H11.1109C10.4975 12.9998 9.99977 12.5528 9.99977 11.9998C9.99977 11.4468 10.4975 10.9998 11.1109 10.9998H19.9998C20.0181 10.9998 20.0351 11.0044 20.0523 11.0089C20.0663 11.0127 20.0803 11.0165 20.0953 11.0178L18.1864 8.5748C17.8331 8.1238 17.9542 7.4998 18.4564 7.1818C18.9575 6.8628 19.6509 6.9728 20.0042 7.4248Z" fill="white"/>
</svg>
