<svg width="14" height="10" viewBox="0 0 14 10" fill="none" xmlns="http://www.w3.org/2000/svg">
<path fill-rule="evenodd" clip-rule="evenodd" d="M13.1405 8.83011C13.5676 8.09821 13.75 6.91803 13.75 4.99825C13.75 3.08611 13.5693 1.9128 13.1377 1.16127C12.7051 0.380851 12.1921 0.133145 11.1739 0.0736881C10.4789 0.0265763 8.75143 0 6.87665 0C4.99788 0 3.26966 0.0265666 2.56938 0.0740572C1.55695 0.133286 1.04382 0.381542 0.607455 1.16413C0.182115 1.91307 0 3.09211 0 5.00526C0 6.90753 0.182997 8.09253 0.611195 8.839C1.04188 9.6115 1.54683 9.85675 2.56788 9.92848C3.30173 9.97139 5.12776 10 6.87665 10C8.62163 10 10.4468 9.97139 11.1739 9.92896C12.2044 9.85675 12.7092 9.61112 13.1405 8.83011ZM11.0953 1.3212C11.7321 1.35841 11.8502 1.41566 12.0521 1.78102C12.346 2.29 12.5 3.28607 12.5 5.00526C12.5 6.71141 12.3452 7.71298 12.0535 8.21312C11.8509 8.57961 11.7336 8.63671 11.0938 8.68155C10.4056 8.72168 8.59811 8.75002 6.87665 8.75002C5.15133 8.75002 3.34296 8.72168 2.64815 8.68107C2.01626 8.63666 1.89729 8.57886 1.69921 8.22362C1.40554 7.71159 1.25 6.70439 1.25 4.99825C1.25 3.29312 1.40471 2.29149 1.69681 1.77714C1.89797 1.41642 2.01778 1.35846 2.64819 1.32156C3.31568 1.27632 5.02765 1.25 6.87665 1.25C8.7217 1.25 10.4329 1.27633 11.0953 1.3212ZM5.625 3.125L8.74999 5.00001L5.625 6.87502V3.125Z" fill="#494949"/>
</svg>
