<svg width="12" height="16" viewBox="0 0 12 16" fill="none" xmlns="http://www.w3.org/2000/svg">
<path d="M8.57143 0C9.04482 0 9.42857 0.397969 9.42857 0.888889L11.1429 0.888889C11.6162 0.888889 12 1.28686 12 1.77778C12 2.2687 11.6162 2.66667 11.1429 2.66667L0.857143 2.66667C0.383756 2.66667 0 2.2687 0 1.77778C0 1.28686 0.383756 0.888888 0.857143 0.888888L2.57143 0.888889C2.57143 0.397969 2.95518 0 3.42857 0H8.57143Z" fill="black" fill-opacity="0.7"/>
<path fill-rule="evenodd" clip-rule="evenodd" d="M0.857143 3.55556H11.1429V14.2222C11.1429 15.2041 10.3753 16 9.42857 16H2.57143C1.62466 16 0.857143 15.2041 0.857143 14.2222V3.55556ZM3.85714 5.33333C3.62045 5.33333 3.42857 5.53232 3.42857 5.77778V13.7778C3.42857 14.0232 3.62045 14.2222 3.85714 14.2222C4.09384 14.2222 4.28571 14.0232 4.28571 13.7778V5.77778C4.28571 5.53232 4.09384 5.33333 3.85714 5.33333ZM8.14286 5.33333C7.90616 5.33333 7.71429 5.53232 7.71429 5.77778V13.7778C7.71429 14.0232 7.90616 14.2222 8.14286 14.2222C8.37955 14.2222 8.57143 14.0232 8.57143 13.7778V5.77778C8.57143 5.53232 8.37955 5.33333 8.14286 5.33333Z" fill="black" fill-opacity="0.7"/>
</svg>
