<svg xmlns="http://www.w3.org/2000/svg" style="display: none;">

    <symbol id="close" viewBox="0 0 20 21">
        <path d="M0.547686 0.561379C-0.182562 1.30988 -0.182562 2.52345 0.547687 3.27195L7.15886 10.0484L0.547707 16.8248C-0.182542 17.5733 -0.182543 18.7869 0.547707 19.5354C1.27796 20.2839 2.46193 20.2839 3.19217 19.5354L9.80333 12.759L16.4145 19.5354C17.1447 20.2839 18.3287 20.2839 19.059 19.5354C19.7892 18.7869 19.7892 17.5733 19.059 16.8248L12.4478 10.0484L19.059 3.27196C19.7892 2.52345 19.7892 1.30989 19.059 0.561383C18.3287 -0.187122 17.1448 -0.187122 16.4145 0.561383L9.80333 7.33783L3.19215 0.561379C2.4619 -0.187126 1.27794 -0.187126 0.547686 0.561379Z" fill="#B72025"/>
    </symbol>

    <symbol id="shape-icon-2" viewBox="0 26 100 48">
        <!-- <path>s and whatever other shapes in here -->
    </symbol>

</svg>
