<svg width="24" height="25" viewBox="0 0 24 25" fill="none" xmlns="http://www.w3.org/2000/svg">
<path fill-rule="evenodd" clip-rule="evenodd" d="M13 5.80225C13 6.35525 12.552 6.80225 12 6.80225C11.448 6.80225 11 6.35525 11 5.80225V3.80225C11 3.24925 11.448 2.80225 12 2.80225C12.552 2.80225 13 3.24925 13 3.80225V5.80225ZM13 16.262C13 15.905 13.191 15.574 13.501 15.395C14.426 14.864 15 13.87 15 12.802C15 11.148 13.654 9.80205 12 9.80205C10.346 9.80205 9 11.148 9 12.802C9 13.87 9.574 14.864 10.499 15.395C10.809 15.574 11 15.905 11 16.262V20.802H13V16.262ZM7 12.802C7 10.045 9.243 7.80205 12 7.80205C14.757 7.80205 17 10.045 17 12.802C17 14.381 16.246 15.864 15 16.798V20.802C15 21.905 14.103 22.802 13 22.802H11C9.897 22.802 9 21.905 9 20.802V16.798C7.753 15.864 7 14.381 7 12.802ZM21 11.8022H19C18.447 11.8022 18 12.2492 18 12.8022C18 13.3552 18.447 13.8022 19 13.8022H21C21.553 13.8022 22 13.3552 22 12.8022C22 12.2492 21.553 11.8022 21 11.8022ZM3 11.8022H5C5.552 11.8022 6 12.2492 6 12.8022C6 13.3552 5.552 13.8022 5 13.8022H3C2.448 13.8022 2 13.3552 2 12.8022C2 12.2492 2.448 11.8022 3 11.8022ZM7.6597 7.22025L6.2207 5.83025C5.8237 5.44725 5.1917 5.45925 4.8067 5.85625C4.4227 6.25225 4.4337 6.88625 4.8307 7.27025L6.2697 8.65925C6.4647 8.84725 6.7147 8.94025 6.9647 8.94025C7.2267 8.94025 7.4877 8.83725 7.6837 8.63425C8.0677 8.23825 8.0567 7.60425 7.6597 7.22025ZM17.7794 5.83195C18.1754 5.44895 18.8114 5.45995 19.1924 5.85595C19.5764 6.25195 19.5654 6.88595 19.1684 7.26895L17.7294 8.65895C17.5364 8.84595 17.2854 8.93995 17.0354 8.93995C16.7734 8.93995 16.5114 8.83695 16.3164 8.63395C15.9324 8.23795 15.9434 7.60395 16.3404 7.22095L17.7794 5.83195Z" fill="#231F20"/>
<mask id="mask0" mask-type="alpha" maskUnits="userSpaceOnUse" x="2" y="2" width="20" height="21">
<path fill-rule="evenodd" clip-rule="evenodd" d="M13 5.80225C13 6.35525 12.552 6.80225 12 6.80225C11.448 6.80225 11 6.35525 11 5.80225V3.80225C11 3.24925 11.448 2.80225 12 2.80225C12.552 2.80225 13 3.24925 13 3.80225V5.80225ZM13 16.262C13 15.905 13.191 15.574 13.501 15.395C14.426 14.864 15 13.87 15 12.802C15 11.148 13.654 9.80205 12 9.80205C10.346 9.80205 9 11.148 9 12.802C9 13.87 9.574 14.864 10.499 15.395C10.809 15.574 11 15.905 11 16.262V20.802H13V16.262ZM7 12.802C7 10.045 9.243 7.80205 12 7.80205C14.757 7.80205 17 10.045 17 12.802C17 14.381 16.246 15.864 15 16.798V20.802C15 21.905 14.103 22.802 13 22.802H11C9.897 22.802 9 21.905 9 20.802V16.798C7.753 15.864 7 14.381 7 12.802ZM21 11.8022H19C18.447 11.8022 18 12.2492 18 12.8022C18 13.3552 18.447 13.8022 19 13.8022H21C21.553 13.8022 22 13.3552 22 12.8022C22 12.2492 21.553 11.8022 21 11.8022ZM3 11.8022H5C5.552 11.8022 6 12.2492 6 12.8022C6 13.3552 5.552 13.8022 5 13.8022H3C2.448 13.8022 2 13.3552 2 12.8022C2 12.2492 2.448 11.8022 3 11.8022ZM7.6597 7.22025L6.2207 5.83025C5.8237 5.44725 5.1917 5.45925 4.8067 5.85625C4.4227 6.25225 4.4337 6.88625 4.8307 7.27025L6.2697 8.65925C6.4647 8.84725 6.7147 8.94025 6.9647 8.94025C7.2267 8.94025 7.4877 8.83725 7.6837 8.63425C8.0677 8.23825 8.0567 7.60425 7.6597 7.22025ZM17.7794 5.83195C18.1754 5.44895 18.8114 5.45995 19.1924 5.85595C19.5764 6.25195 19.5654 6.88595 19.1684 7.26895L17.7294 8.65895C17.5364 8.84595 17.2854 8.93995 17.0354 8.93995C16.7734 8.93995 16.5114 8.83695 16.3164 8.63395C15.9324 8.23795 15.9434 7.60395 16.3404 7.22095L17.7794 5.83195Z" fill="white"/>
</mask>
</svg>
