<svg width="24" height="25" viewBox="0 0 24 25" fill="none" xmlns="http://www.w3.org/2000/svg">
<path fill-rule="evenodd" clip-rule="evenodd" d="M16 11.8022H13V8.80225C13 8.24925 12.552 7.80225 12 7.80225C11.448 7.80225 11 8.24925 11 8.80225V12.8022C11 13.3552 11.448 13.8022 12 13.8022H16C16.553 13.8022 17 13.3552 17 12.8022C17 12.2492 16.553 11.8022 16 11.8022ZM12 20.8022C7.589 20.8022 4 17.2132 4 12.8022C4 8.39125 7.589 4.80225 12 4.80225C16.411 4.80225 20 8.39125 20 12.8022C20 17.2132 16.411 20.8022 12 20.8022ZM12 2.80225C6.486 2.80225 2 7.28825 2 12.8022C2 18.3162 6.486 22.8022 12 22.8022C17.514 22.8022 22 18.3162 22 12.8022C22 7.28825 17.514 2.80225 12 2.80225Z" fill="#231F20"/>
<mask id="mask0" mask-type="alpha" maskUnits="userSpaceOnUse" x="2" y="2" width="20" height="21">
<path fill-rule="evenodd" clip-rule="evenodd" d="M16 11.8022H13V8.80225C13 8.24925 12.552 7.80225 12 7.80225C11.448 7.80225 11 8.24925 11 8.80225V12.8022C11 13.3552 11.448 13.8022 12 13.8022H16C16.553 13.8022 17 13.3552 17 12.8022C17 12.2492 16.553 11.8022 16 11.8022ZM12 20.8022C7.589 20.8022 4 17.2132 4 12.8022C4 8.39125 7.589 4.80225 12 4.80225C16.411 4.80225 20 8.39125 20 12.8022C20 17.2132 16.411 20.8022 12 20.8022ZM12 2.80225C6.486 2.80225 2 7.28825 2 12.8022C2 18.3162 6.486 22.8022 12 22.8022C17.514 22.8022 22 18.3162 22 12.8022C22 7.28825 17.514 2.80225 12 2.80225Z" fill="white"/>
</mask>

</svg>
