<svg width="13" height="10" viewBox="0 0 13 10" fill="none" xmlns="http://www.w3.org/2000/svg">
<path fill-rule="evenodd" clip-rule="evenodd" d="M0.5 1.875C0.5 1.18464 1.05964 0.625 1.75 0.625H11.75C12.4404 0.625 13 1.18464 13 1.875V8.125C13 8.81536 12.4404 9.375 11.75 9.375H1.75C1.05964 9.375 0.5 8.81536 0.5 8.125V1.875ZM1.75 2.61203V7.5C1.75 7.84518 2.02982 8.125 2.375 8.125H11.125C11.4702 8.125 11.75 7.84518 11.75 7.5V2.61203L6.75 5.73704L1.75 2.61203ZM10.5708 1.875H2.92924L6.75 4.26297L10.5708 1.875Z" fill="#494949"/>
</svg>
