<svg width="40" height="40" viewBox="0 0 40 40" fill="none" xmlns="http://www.w3.org/2000/svg">
<path opacity="0.6" d="M0 18V18.6444V20.7556V22H4V20.7556V18.6444V18H0Z" fill="white"/>
<path opacity="0.6" d="M21.3333 0H19.2H18V4H19.2H21.3333H22V0H21.3333Z" fill="white"/>
<path opacity="0.6" d="M32.6665 17.3335H22.6665V7.28906C27.7776 8.33351 31.6443 12.2224 32.6665 17.3335Z" fill="white"/>
<path opacity="0.6" d="M21.3333 36H19.2H18V40H19.2H21.3333H22V36H21.3333Z" fill="white"/>
<path opacity="0.6" d="M36 18V17.9556V20.0445V22H40V20.0445V17.9556V18H36Z" fill="white"/>
<path d="M18.0002 7.15576V17.5335C18.0002 18.0224 17.6002 18.4224 17.1113 18.4224H7.15576C7.20021 17.978 7.26687 17.3113 7.33354 17.3113H16.6669V7.35576C17.3335 7.26687 17.778 7.20021 18.0002 7.15576Z" fill="white"/>
<path d="M18 22.8664V32.7998C17.7777 32.7553 17.3333 32.6887 16.6666 32.5998V23.3109H7.37774C7.28885 22.6442 7.22218 22.1998 7.17773 21.9775H17.1111C17.6 21.9775 18 22.3553 18 22.8664Z" fill="white"/>
<path d="M32.8445 18.4224H22.4446C21.9557 18.4224 21.5557 18.0224 21.5557 17.5335V7.11133C22.0001 7.15577 22.6668 7.22244 22.6668 7.2891V17.2891H32.6668C32.7557 17.3113 32.8001 17.978 32.8445 18.4224Z" fill="white"/>
<path d="M32.8223 21.9775C32.7779 22.1998 32.7112 22.6442 32.6223 23.3109H22.6668V32.6442C22.6668 32.7109 22.0001 32.7775 21.5557 32.822V22.8664C21.5557 22.3775 21.9557 21.9775 22.4446 21.9775H32.8223Z" fill="white"/>
<path d="M34.9111 18.4889C34.8667 18.1111 34.8222 17.7333 34.7555 17.3556C33.6667 11.1778 28.8 6.31111 22.6222 5.22222C22.2444 5.15556 21.8667 5.11111 21.4889 5.06666C21 5.02222 20.5111 5 20.0222 5C19.4444 5 18.8889 5.02222 18.3111 5.08889C17.9333 5.13333 17.5555 5.2 17.1778 5.26667C11.1111 6.42222 6.33332 11.2667 5.26666 17.3556C5.19999 17.7333 5.15554 18.1111 5.1111 18.4889C5.06665 18.9778 5.04443 19.4667 5.04443 19.9556C5.04443 20.5333 5.06665 21.0889 5.13332 21.6667C5.17777 22.0444 5.24443 22.4222 5.3111 22.8C6.46665 28.8 11.1778 33.5111 17.1778 34.6667C17.5555 34.7333 17.9333 34.8 18.3111 34.8444C18.8667 34.9111 19.4444 34.9333 20.0222 34.9333C20.5111 34.9333 21 34.9111 21.4889 34.8667C21.8667 34.8222 22.2444 34.7778 22.6222 34.7111C28.7333 33.6444 33.5555 28.8667 34.7111 22.8C34.7778 22.4222 34.8444 22.0444 34.8889 21.6667C34.9555 21.1111 34.9778 20.5333 34.9778 19.9556C34.9778 19.4667 34.9555 18.9778 34.9111 18.4889ZM32.6222 22.8C31.5111 27.7333 27.5778 31.6222 22.6222 32.6222C22.2444 32.6889 21.8667 32.7556 21.4889 32.8C21 32.8667 20.5111 32.8889 20.0222 32.8889C19.4444 32.8889 18.8667 32.8444 18.3111 32.7778C17.9333 32.7333 17.5555 32.6667 17.1778 32.5778C12.3111 31.4889 8.48887 27.6667 7.39998 22.8C7.3111 22.4222 7.24443 22.0444 7.19999 21.6667C7.13332 21.1111 7.08887 20.5333 7.08887 19.9556C7.08887 19.4667 7.1111 18.9556 7.17776 18.4889C7.22221 18.1111 7.28888 17.7333 7.35554 17.3556C8.37777 12.3778 12.2444 8.44445 17.1778 7.35556C17.5555 7.26667 17.9333 7.2 18.3111 7.15556C18.8667 7.08889 19.4444 7.04445 20.0222 7.04445C20.5111 7.04445 21.0222 7.06667 21.4889 7.13333C21.8667 7.17778 22.2444 7.24444 22.6222 7.31111C27.6667 8.35555 31.6444 12.3111 32.6889 17.3778C32.7555 17.7556 32.8222 18.1333 32.8667 18.5111C32.9333 19 32.9555 19.4889 32.9555 19.9778C32.9555 20.5556 32.9111 21.1333 32.8444 21.6889C32.7778 22.0444 32.7111 22.4222 32.6222 22.8Z" fill="white"/>
</svg>
