<svg width="9" height="13" viewBox="0 0 9 13" fill="none" xmlns="http://www.w3.org/2000/svg">
<path fill-rule="evenodd" clip-rule="evenodd" d="M8.75 5.125C8.75 6.05346 8.46078 6.91438 7.96752 7.62256H7.96875L4.90193 12.4249C4.65614 12.8098 4.094 12.8097 3.84832 12.4247L0.796098 7.642C0.294547 6.93016 0 6.06198 0 5.125C0 2.70875 1.95875 0.75 4.375 0.75C6.79125 0.75 8.75 2.70875 8.75 5.125ZM4.375 7.625C5.75571 7.625 6.875 6.50571 6.875 5.125C6.875 3.74429 5.75571 2.625 4.375 2.625C2.99429 2.625 1.875 3.74429 1.875 5.125C1.875 6.50571 2.99429 7.625 4.375 7.625Z" fill="#494949"/>
</svg>
