<svg width="13" height="14" viewBox="0 0 13 14" fill="none" xmlns="http://www.w3.org/2000/svg">
<path fill-rule="evenodd" clip-rule="evenodd" d="M6.75 13.25C10.2018 13.25 13 10.4518 13 7C13 3.54822 10.2018 0.75 6.75 0.75C3.29822 0.75 0.5 3.54822 0.5 7C0.5 10.4518 3.29822 13.25 6.75 13.25ZM8.625 5.75C8.625 6.78553 7.78553 7.625 6.75 7.625C5.71447 7.625 4.875 6.78553 4.875 5.75C4.875 4.71447 5.71447 3.875 6.75 3.875C7.78553 3.875 8.625 4.71447 8.625 5.75ZM2.99954 10.125C3.85474 8.98646 5.21631 8.25 6.74989 8.25C8.28346 8.25 9.64504 8.98646 10.5002 10.125C9.64504 11.2635 8.28346 12 6.74989 12C5.21631 12 3.85474 11.2635 2.99954 10.125Z" fill="#494949"/>
</svg>
