<svg width="13" height="14" viewBox="0 0 13 14" fill="none" xmlns="http://www.w3.org/2000/svg">
<path fill-rule="evenodd" clip-rule="evenodd" d="M6.75 13.25C10.2018 13.25 13 10.4518 13 7C13 3.54822 10.2018 0.75 6.75 0.75C3.29822 0.75 0.5 3.54822 0.5 7C0.5 10.4518 3.29822 13.25 6.75 13.25ZM8.76967 7.85094L9.73489 8.81845C9.9266 9.01123 9.92087 9.33034 9.72203 9.53007L9.44645 9.80054L9.4405 9.79525C9.32418 9.88647 9.19004 9.96276 9.04653 10.0189C8.91296 10.0709 8.78152 10.1038 8.64438 10.1202C8.58141 10.1269 7.12174 10.264 5.31045 8.44877C4.0001 7.13543 3.51727 6.1676 3.64472 5.10861C3.65961 4.97656 3.69216 4.84477 3.74445 4.70666C3.80117 4.56157 3.87739 4.42703 3.96861 4.31038L3.96118 4.30298L4.23321 4.02877C4.43246 3.82901 4.75098 3.82318 4.94278 4.01538L5.908 4.983C6.0998 5.17547 6.09431 5.49448 5.89505 5.69424L5.7346 5.85525L5.40824 6.18187C5.42285 6.20749 5.43762 6.23427 5.45289 6.26196C5.45542 6.26656 5.45797 6.27118 5.46054 6.27583L5.46151 6.27758C5.6321 6.5854 5.86548 7.00654 6.30822 7.45023C6.75049 7.89383 7.17078 8.12756 7.47786 8.2981C7.51129 8.31691 7.54309 8.33463 7.57381 8.3516L8.06009 7.86433C8.25905 7.66486 8.57742 7.65903 8.76967 7.85094Z" fill="#494949"/>
</svg>
